<svg class="icon" width="200px" height="200.00px" viewBox="0 0 1024 1024" version="1.1" xmlns="http://www.w3.org/2000/svg"><path d="M940.683636 427.287273L868.770909 302.545455a46.545455 46.545455 0 0 0-40.261818-23.272728h-144.290909a46.545455 46.545455 0 0 0-40.261818 23.272728l-31.418182 54.690909-64.465455-45.381819 26.065455-44.916363a46.545455 46.545455 0 0 0 0-46.545455L500.596364 93.090909a46.545455 46.545455 0 0 0-40.261819-23.272727h-146.850909a46.545455 46.545455 0 0 0-40.494545 23.272727L199.68 220.392727a46.545455 46.545455 0 0 0 0 46.545455l73.309091 127.301818a46.545455 46.545455 0 0 0 40.494545 23.272727h32.349091l-12.101818 83.781818h-83.083636a46.545455 46.545455 0 0 0-40.261818 23.272728l-103.796364 179.898182a46.545455 46.545455 0 0 0 0 46.545454L209.454545 930.909091a46.545455 46.545455 0 0 0 40.261819 23.272727h208.756363a46.545455 46.545455 0 0 0 40.261818-23.272727l103.796364-179.898182a46.545455 46.545455 0 0 0 0-46.545454l-37.469091-65.163637 81.92-36.770909a46.545455 46.545455 0 0 0 37.236364 19.316364h144.290909a46.545455 46.545455 0 0 0 40.261818-23.272728l71.912727-124.741818a46.545455 46.545455 0 0 0 0-46.545454z m-442.181818 97.28a46.545455 46.545455 0 0 0-40.261818-23.272728h-77.498182l12.101818-83.781818h67.490909a46.545455 46.545455 0 0 0 40.261819-23.272727l23.272727-41.890909 64.232727 45.381818-16.989091 29.556364a46.545455 46.545455 0 0 0 0 46.545454l50.967273 88.436364-81.454545 36.538182z"  /></svg>